<?xml version="1.0" encoding="UTF-8"?>
<svg width="457px" height="64px" viewBox="0 0 457 64" version="1.1" xmlns="http://www.w3.org/2000/svg" xmlns:xlink="http://www.w3.org/1999/xlink">
    <!-- Generator: Sketch 63.1 (92452) - https://sketch.com -->
    <title>logo-ww-text-only-white</title>
    <desc>Created with Sketch.</desc>
    <g id="Page-1" stroke="none" stroke-width="1" fill="none" fill-rule="evenodd">
        <g id="logo-ww-text-only-white" fill="#000000" fill-rule="nonzero">
            <polygon id="Path" points="38.98 1.47 45.15 1.47 40.83 63.14 30.96 63.14 22.94 32.83 15.01 63.14 5.14 63.14 0.82 1.47 7 1.47 10.7 56.62 11.05 56.62 19.33 25.25 26.64 25.25 34.92 56.62 35.27 56.62"></polygon>
            <path d="M84.32,48.25 C84.32,56.88 77.27,63.67 68.9,63.67 C60.27,63.67 53.48,56.89 53.48,48.25 L53.48,16.44 C53.48,7.89 60.26,0.93 68.9,0.93 C77.27,0.93 84.32,7.89 84.32,16.44 L84.32,48.25 Z M78.16,15.65 C78.16,10.72 73.93,6.66 68.91,6.66 C63.89,6.66 59.66,10.71 59.66,15.65 L59.66,48.87 C59.66,53.98 63.89,57.94 68.91,57.94 C73.93,57.94 78.16,53.98 78.16,48.87 L78.16,15.65 Z" id="Shape"></path>
            <path d="M118.28,63.14 L108.15,34.95 L99.96,34.95 L99.96,63.14 L93.79,63.14 L93.79,1.47 L109.21,1.47 C117.58,1.47 124.19,8.43 124.19,16.98 L124.19,19.45 C124.19,29.58 116.17,33.46 114.32,33.99 L124.72,63.15 L118.28,63.15 L118.28,63.14 Z M99.96,29.22 L109.21,29.22 C114.23,29.22 118.02,25.17 118.02,20.23 L118.02,16.18 C118.02,11.25 114.23,7.19 109.21,7.19 L99.96,7.19 L99.96,29.22 Z" id="Shape"></path>
            <polygon id="Path" points="164.85 63.14 158.77 63.14 158.77 35.3 140.44 10.37 140.09 10.37 140.09 63.14 134.01 63.14 134.01 1.47 140.88 1.47 158.41 24.82 158.76 24.82 158.76 1.47 164.84 1.47 164.84 63.14"></polygon>
            <path d="M200.88,13.27 L200.88,23.05 C200.88,26.49 203.7,29.22 207.14,29.22 L207.14,34.95 C203.7,34.95 200.88,37.68 200.88,41.12 L200.88,51.34 C200.88,54.86 203.7,57.77 207.14,57.77 C210.4,57.77 213.31,54.86 213.31,51.34 L213.31,29.23 L225.64,29.23 L225.64,34.96 L219.38,34.96 L219.38,51.35 C219.38,58.31 213.83,63.68 207.22,63.68 C200.26,63.68 194.8,58.31 194.8,51.35 L194.8,41.48 C194.8,37.78 196.47,34.34 199.12,32.14 C196.48,29.85 194.8,26.5 194.8,22.71 L194.8,13.28 C194.8,6.32 200.26,0.95 207.22,0.95 C213.83,0.95 219.38,6.32 219.38,13.28 L219.38,16.19 L213.3,16.19 L213.3,13.28 C213.3,9.76 210.39,6.85 207.13,6.85 C203.7,6.84 200.88,9.75 200.88,13.27 Z" id="Path"></path>
            <polygon id="Path" points="289.16 1.47 295.33 1.47 291.01 63.14 281.14 63.14 273.12 32.83 265.19 63.14 255.32 63.14 251 1.47 257.17 1.47 260.87 56.62 261.22 56.62 269.5 25.25 276.81 25.25 285.09 56.62 285.44 56.62"></polygon>
            <path d="M334.5,48.25 C334.5,56.88 327.45,63.67 319.08,63.67 C310.45,63.67 303.66,56.89 303.66,48.25 L303.66,16.44 C303.66,7.89 310.44,0.93 319.08,0.93 C327.45,0.93 334.5,7.89 334.5,16.44 L334.5,48.25 Z M328.33,15.65 C328.33,10.72 324.1,6.66 319.08,6.66 C314.06,6.66 309.83,10.71 309.83,15.65 L309.83,48.87 C309.83,53.98 314.06,57.94 319.08,57.94 C324.1,57.94 328.33,53.98 328.33,48.87 L328.33,15.65 Z" id="Shape"></path>
            <path d="M349.8,48.96 C349.8,53.89 354.03,57.95 359.05,57.95 C364.07,57.95 368.3,53.9 368.3,48.96 L368.3,1.47 L374.47,1.47 L374.47,48.17 C374.47,56.72 367.42,63.68 359.05,63.68 C350.42,63.68 343.63,56.72 343.63,48.17 L343.63,1.47 L349.8,1.47 L349.8,48.96 Z" id="Path"></path>
            <polygon id="Path" points="415.3 63.14 409.22 63.14 409.22 35.3 390.89 10.37 390.54 10.37 390.54 63.14 384.46 63.14 384.46 1.47 391.33 1.47 408.86 24.82 409.21 24.82 409.21 1.47 415.29 1.47 415.29 63.14"></polygon>
            <path d="M456.42,47.72 C456.42,56.35 449.37,63.14 441,63.14 L425.58,63.14 L425.58,1.47 L441,1.47 C449.37,1.47 456.42,8.43 456.42,16.98 L456.42,47.72 Z M450.26,16.18 C450.26,11.25 446.03,7.19 441.01,7.19 L431.76,7.19 L431.76,57.41 L441.01,57.41 C446.03,57.41 450.26,53.45 450.26,48.33 L450.26,16.18 Z" id="Shape"></path>
        </g>
    </g>
</svg>